<svg width="21" height="21" viewBox="0 0 21 21" fill="none" xmlns="http://www.w3.org/2000/svg">
<path opacity="0.4" d="M13.5022 2.1665H6.52721C3.49388 2.1665 1.68555 3.97484 1.68555 7.00817V13.9832C1.68555 17.0165 3.49388 18.8248 6.52721 18.8248H13.5022C16.5355 18.8248 18.3439 17.0165 18.3439 13.9832V7.00817C18.3439 3.97484 16.5355 2.1665 13.5022 2.1665Z" fill="white"/>
<path d="M15.8444 12.9998H15.6361V12.5832V12.1665V9.6665V6.95817C15.6361 5.6915 14.6111 4.6665 13.3444 4.6665H6.67773C5.41107 4.6665 4.38607 5.6915 4.38607 6.95817V9.6665V12.1665V12.5832V12.9998H4.17773C3.83607 12.9998 3.55273 13.2832 3.55273 13.6248C3.55273 13.9665 3.83607 14.2498 4.17773 14.2498H5.01107H7.37776C7.66109 15.4415 8.73607 16.3332 10.0111 16.3332C11.2861 16.3332 12.361 15.4415 12.6444 14.2498H15.0111H15.8444C16.1861 14.2498 16.4694 13.9665 16.4694 13.6248C16.4694 13.2832 16.1861 12.9998 15.8444 12.9998ZM14.0027 10.3998C13.9527 10.3832 13.9027 10.3665 13.8444 10.3498C13.6777 10.3165 13.5111 10.2915 13.3361 10.2915H6.66939C6.49439 10.2915 6.32774 10.3165 6.16107 10.3498C6.11107 10.3582 6.06107 10.3832 6.00274 10.3998C5.8944 10.4332 5.78607 10.4665 5.68607 10.5165C5.66107 10.5248 5.63605 10.5332 5.61938 10.5415V9.6665C5.61938 9.0915 6.08605 8.62484 6.66105 8.62484H13.3277C13.9027 8.62484 14.3694 9.0915 14.3694 9.6665V10.5415C14.3444 10.5332 14.3278 10.5248 14.3028 10.5165C14.2194 10.4665 14.111 10.4332 14.0027 10.3998ZM6.67773 5.9165H13.3444C13.9194 5.9165 14.3861 6.38317 14.3861 6.95817V7.63317C14.0694 7.47484 13.7194 7.37484 13.3444 7.37484H6.67773C6.30273 7.37484 5.95273 7.47484 5.63607 7.63317V6.95817C5.63607 6.38317 6.10273 5.9165 6.67773 5.9165ZM12.0944 12.9998C11.7527 12.9998 11.4694 13.2832 11.4694 13.6248C11.4694 14.4248 10.8111 15.0832 10.0111 15.0832C9.21107 15.0832 8.55273 14.4248 8.55273 13.6248C8.55273 13.2832 8.2694 12.9998 7.92773 12.9998H5.63607V12.5832C5.63607 12.0082 6.10273 11.5415 6.67773 11.5415H13.3444C13.9194 11.5415 14.3861 12.0082 14.3861 12.5832V12.9998H12.0944Z" fill="white"/>
</svg>
