<svg width="25" height="25" viewBox="0 0 25 25" fill="none" xmlns="http://www.w3.org/2000/svg">
<path d="M16.0004 21.2599C15.8104 21.2599 15.6204 21.1899 15.4704 21.0399C15.1804 20.7499 15.1804 20.2699 15.4704 19.9799L20.4804 14.9699C20.7704 14.6799 21.2504 14.6799 21.5404 14.9699C21.8304 15.2599 21.8304 15.7399 21.5404 16.0299L16.5304 21.0399C16.3804 21.1799 16.1904 21.2599 16.0004 21.2599Z" fill="#292D32"/>
<path d="M21.0107 16.2402H4.01074C3.60074 16.2402 3.26074 15.9002 3.26074 15.4902C3.26074 15.0802 3.60074 14.7402 4.01074 14.7402H21.0107C21.4207 14.7402 21.7607 15.0802 21.7607 15.4902C21.7607 15.9002 21.4207 16.2402 21.0107 16.2402Z" fill="#292D32"/>
<path d="M4.01117 10.2599C3.82117 10.2599 3.63117 10.1899 3.48117 10.0399C3.19117 9.74994 3.19117 9.26994 3.48117 8.97994L8.49117 3.96994C8.78117 3.67994 9.26117 3.67994 9.55117 3.96994C9.84117 4.25994 9.84117 4.73994 9.55117 5.02994L4.54117 10.0399C4.40117 10.1799 4.20117 10.2599 4.01117 10.2599Z" fill="#292D32"/>
<path d="M21.0107 10.2598H4.01074C3.60074 10.2598 3.26074 9.91977 3.26074 9.50977C3.26074 9.09977 3.60074 8.75977 4.01074 8.75977H21.0107C21.4207 8.75977 21.7607 9.09977 21.7607 9.50977C21.7607 9.91977 21.4207 10.2598 21.0107 10.2598Z" fill="#292D32"/>
</svg>
