<svg width="19" height="19" viewBox="0 0 19 19" fill="none" xmlns="http://www.w3.org/2000/svg">
<path d="M16.4307 12.5028C16.2396 11.5686 14.543 11.3751 14.1616 9.50756L14.1258 9.33554C14.1258 9.34031 14.1258 9.33155 14.1197 9.30527V9.322L14.1049 9.24953L14.1005 9.23041C14.1005 9.21767 14.1005 9.21847 14.1005 9.22563L13.8692 8.09635C13.6745 7.14395 13.1334 6.27932 12.3335 5.64228C11.5335 5.00525 10.5215 4.63305 9.46105 4.58586C9.4628 4.55721 9.4628 4.5285 9.46105 4.49985L9.08926 2.65063C9.04679 2.4429 8.91563 2.25908 8.72462 2.13959C8.53362 2.02011 8.29843 1.97476 8.07078 2.01352C7.84314 2.05228 7.64169 2.17197 7.51076 2.34626C7.37982 2.52056 7.33012 2.73518 7.3726 2.94291L7.75223 4.79452C7.76112 4.82177 7.7722 4.84839 7.7854 4.87416C6.81593 5.26857 6.02043 5.94963 5.52732 6.80738C5.03422 7.66512 4.8723 8.64948 5.0677 9.60153C5.20385 10.2665 5.26931 10.5851 5.29985 10.7308C5.29985 10.7213 5.29985 10.7308 5.30596 10.7603V10.7547L5.3112 10.7802L5.31905 10.8168V10.8081L5.32516 10.8391L5.36007 11.0103C5.7432 12.8779 4.23773 13.6185 4.42886 14.5519C4.52486 15.0186 4.62086 15.4861 5.08254 15.4072L16.1663 13.5142C16.6227 13.4362 16.5267 12.9695 16.4307 12.5028Z" fill="#8E4B10"/>
<path d="M5.3016 10.7611L5.3112 10.8089L5.30509 10.781L5.3016 10.7611Z" fill="#8E4B10"/>
<path d="M2.38404 9.10856H2.31946C2.08872 9.09308 1.87416 8.99462 1.72295 8.83482C1.57173 8.67503 1.49623 8.46699 1.51305 8.25642C1.6495 6.58361 2.39473 5.00041 3.63031 3.75841C3.70717 3.6806 3.80011 3.6174 3.90379 3.57241C4.00746 3.52743 4.11985 3.50156 4.2345 3.49628C4.34916 3.49099 4.46383 3.5064 4.57194 3.54162C4.68006 3.57684 4.7795 3.63118 4.86457 3.70153C4.94964 3.77187 5.01866 3.85684 5.06768 3.95156C5.11671 4.04629 5.14477 4.14891 5.15026 4.25355C5.15575 4.35819 5.13857 4.46278 5.09969 4.56135C5.06081 4.65992 5.00101 4.75052 4.9237 4.82796C4.70986 5.04295 4.51383 5.27215 4.33722 5.51365C3.7121 6.36498 3.33871 7.3493 3.25329 8.3711C3.237 8.5714 3.13838 8.75868 2.97719 8.89543C2.816 9.03218 2.60414 9.10831 2.38404 9.10856Z" fill="#8E4B10"/>
<path d="M7.04357 15.9137C7.32355 16.2514 7.68552 16.5252 8.10104 16.7137C8.51657 16.9022 8.97432 17.0002 9.43835 17C10.0939 16.9994 10.7316 16.8051 11.2561 16.4462C11.7806 16.0873 12.1637 15.5831 12.348 15.009L7.04357 15.9137Z" fill="#8E4B10"/>
</svg>
