<svg width="21" height="21" viewBox="0 0 21 21" fill="none" xmlns="http://www.w3.org/2000/svg">
<path opacity="0.4" d="M10.0111 4.91674V18.2751C9.8694 18.2751 9.7194 18.2501 9.60273 18.1834L9.5694 18.1667C7.9694 17.2917 5.17773 16.3751 3.3694 16.1334L3.12773 16.1001C2.32773 16.0001 1.67773 15.2501 1.67773 14.4501V4.38341C1.67773 3.39174 2.48607 2.64174 3.47773 2.72508C5.22773 2.86674 7.87773 3.75008 9.36107 4.67508L9.5694 4.80008C9.6944 4.87508 9.85273 4.91674 10.0111 4.91674Z" fill="#F6BC2F"/>
<path d="M18.3441 4.39177V14.4501C18.3441 15.2501 17.6941 16.0001 16.8941 16.1001L16.6191 16.1334C14.8024 16.3751 12.0024 17.3001 10.4024 18.1834C10.2941 18.2501 10.1607 18.2751 10.0107 18.2751V4.91677C10.1691 4.91677 10.3274 4.87511 10.4524 4.80011L10.5941 4.70844C12.0774 3.77511 14.7357 2.88344 16.4857 2.73344H16.5357C17.5274 2.65011 18.3441 3.39177 18.3441 4.39177Z" fill="#F6BC2F"/>
<path d="M6.46875 8.2002H4.59375C4.25208 8.2002 3.96875 7.91686 3.96875 7.5752C3.96875 7.23353 4.25208 6.9502 4.59375 6.9502H6.46875C6.81042 6.9502 7.09375 7.23353 7.09375 7.5752C7.09375 7.91686 6.81042 8.2002 6.46875 8.2002Z" fill="#F6BC2F"/>
<path d="M7.09375 10.7002H4.59375C4.25208 10.7002 3.96875 10.4169 3.96875 10.0752C3.96875 9.73353 4.25208 9.4502 4.59375 9.4502H7.09375C7.43542 9.4502 7.71875 9.73353 7.71875 10.0752C7.71875 10.4169 7.43542 10.7002 7.09375 10.7002Z" fill="#F6BC2F"/>
</svg>
