<svg width="21" height="20" viewBox="0 0 21 20" fill="none" xmlns="http://www.w3.org/2000/svg">
<path d="M14.4582 2.9665V1.6665C14.4582 1.32484 14.1749 1.0415 13.8332 1.0415C13.4915 1.0415 13.2082 1.32484 13.2082 1.6665V2.9165H7.79152V1.6665C7.79152 1.32484 7.50819 1.0415 7.16652 1.0415C6.82486 1.0415 6.54152 1.32484 6.54152 1.6665V2.9665C4.29153 3.17484 3.19987 4.5165 3.0332 6.50817C3.01653 6.74984 3.21653 6.94983 3.44987 6.94983H17.5499C17.7915 6.94983 17.9915 6.7415 17.9665 6.50817C17.7999 4.5165 16.7082 3.17484 14.4582 2.9665Z" fill="#266EF1"/>
<path opacity="0.4" d="M17.1667 8.19971C17.625 8.19971 18 8.57471 18 9.03304V14.1664C18 16.6664 16.75 18.333 13.8333 18.333H7.16667C4.25 18.333 3 16.6664 3 14.1664V9.03304C3 8.57471 3.375 8.19971 3.83333 8.19971H17.1667Z" fill="#266EF1"/>
<path d="M7.58333 12.4999C7.475 12.4999 7.36666 12.4749 7.26666 12.4333C7.16666 12.3916 7.07501 12.3332 6.99167 12.2582C6.91667 12.1749 6.85832 12.0833 6.81666 11.9833C6.77499 11.8833 6.75 11.7749 6.75 11.6666C6.75 11.5582 6.77499 11.4499 6.81666 11.3499C6.85832 11.2499 6.91667 11.1583 6.99167 11.0749C7.07501 10.9999 7.16666 10.9416 7.26666 10.8999C7.46666 10.8166 7.7 10.8166 7.9 10.8999C8 10.9416 8.09166 10.9999 8.17499 11.0749C8.24999 11.1583 8.30834 11.2499 8.35001 11.3499C8.39168 11.4499 8.41667 11.5582 8.41667 11.6666C8.41667 11.7749 8.39168 11.8833 8.35001 11.9833C8.30834 12.0833 8.24999 12.1749 8.17499 12.2582C8.09166 12.3332 8 12.3916 7.9 12.4333C7.8 12.4749 7.69167 12.4999 7.58333 12.4999Z" fill="#292D32"/>
<path d="M10.5003 12.4998C10.392 12.4998 10.2837 12.4748 10.1837 12.4332C10.0837 12.3915 9.992 12.3331 9.90867 12.2581C9.75867 12.0998 9.66699 11.8831 9.66699 11.6665C9.66699 11.4498 9.75867 11.2332 9.90867 11.0748C9.992 10.9998 10.0837 10.9415 10.1837 10.8998C10.3837 10.8081 10.617 10.8081 10.817 10.8998C10.917 10.9415 11.0087 10.9998 11.092 11.0748C11.242 11.2332 11.3337 11.4498 11.3337 11.6665C11.3337 11.8831 11.242 12.0998 11.092 12.2581C11.0087 12.3331 10.917 12.3915 10.817 12.4332C10.717 12.4748 10.6087 12.4998 10.5003 12.4998Z" fill="#292D32"/>
<path d="M7.58333 15.4164C7.475 15.4164 7.36666 15.3914 7.26666 15.3498C7.16666 15.3081 7.07501 15.2497 6.99167 15.1747C6.84167 15.0164 6.75 14.7998 6.75 14.5831C6.75 14.3664 6.84167 14.1498 6.99167 13.9914C7.07501 13.9164 7.16666 13.8581 7.26666 13.8164C7.46666 13.7331 7.7 13.7331 7.9 13.8164C8 13.8581 8.09166 13.9164 8.17499 13.9914C8.32499 14.1498 8.41667 14.3664 8.41667 14.5831C8.41667 14.7998 8.32499 15.0164 8.17499 15.1747C8.09166 15.2497 8 15.3081 7.9 15.3498C7.8 15.3914 7.69167 15.4164 7.58333 15.4164Z" fill="#292D32"/>
</svg>
