<svg width="21" height="21" viewBox="0 0 21 21" fill="none" xmlns="http://www.w3.org/2000/svg">
<path d="M14.5588 3.4665V2.1665C14.5588 1.82484 14.2754 1.5415 13.9338 1.5415C13.5921 1.5415 13.3088 1.82484 13.3088 2.1665V3.4165H7.89211V2.1665C7.89211 1.82484 7.60878 1.5415 7.26711 1.5415C6.92544 1.5415 6.64211 1.82484 6.64211 2.1665V3.4665C4.39211 3.67484 3.30045 5.0165 3.13378 7.00817C3.11712 7.24984 3.31712 7.44983 3.55045 7.44983H17.6504C17.8921 7.44983 18.0921 7.2415 18.0671 7.00817C17.9004 5.0165 16.8088 3.67484 14.5588 3.4665Z" fill="#006650"/>
<path opacity="0.4" d="M17.2673 8.69971C17.7256 8.69971 18.1006 9.07471 18.1006 9.53304V14.6664C18.1006 17.1664 16.8506 18.833 13.9339 18.833H7.26725C4.35059 18.833 3.10059 17.1664 3.10059 14.6664V9.53304C3.10059 9.07471 3.47559 8.69971 3.93392 8.69971H17.2673Z" fill="#006650"/>
<path d="M7.68392 12.9999C7.57559 12.9999 7.46725 12.9749 7.36725 12.9333C7.26725 12.8916 7.17559 12.8332 7.09226 12.7582C7.01726 12.6749 6.95891 12.5833 6.91724 12.4833C6.87557 12.3833 6.85059 12.2749 6.85059 12.1666C6.85059 12.0582 6.87557 11.9499 6.91724 11.8499C6.95891 11.7499 7.01726 11.6583 7.09226 11.5749C7.17559 11.4999 7.26725 11.4416 7.36725 11.3999C7.56725 11.3166 7.80059 11.3166 8.00059 11.3999C8.10059 11.4416 8.19225 11.4999 8.27558 11.5749C8.35058 11.6583 8.40893 11.7499 8.4506 11.8499C8.49226 11.9499 8.51725 12.0582 8.51725 12.1666C8.51725 12.2749 8.49226 12.3833 8.4506 12.4833C8.40893 12.5833 8.35058 12.6749 8.27558 12.7582C8.19225 12.8332 8.10059 12.8916 8.00059 12.9333C7.90059 12.9749 7.79225 12.9999 7.68392 12.9999Z" fill="#006650"/>
<path d="M10.6009 12.9998C10.4926 12.9998 10.3842 12.9748 10.2842 12.9332C10.1842 12.8915 10.0926 12.8331 10.0093 12.7581C9.85925 12.5998 9.76758 12.3831 9.76758 12.1665C9.76758 11.9498 9.85925 11.7332 10.0093 11.5748C10.0926 11.4998 10.1842 11.4415 10.2842 11.3998C10.4842 11.3081 10.7176 11.3081 10.9176 11.3998C11.0176 11.4415 11.1092 11.4998 11.1926 11.5748C11.3426 11.7332 11.4342 11.9498 11.4342 12.1665C11.4342 12.3831 11.3426 12.5998 11.1926 12.7581C11.1092 12.8331 11.0176 12.8915 10.9176 12.9332C10.8176 12.9748 10.7092 12.9998 10.6009 12.9998Z" fill="#006650"/>
<path d="M7.68392 15.9164C7.57559 15.9164 7.46725 15.8914 7.36725 15.8498C7.26725 15.8081 7.17559 15.7497 7.09226 15.6747C6.94226 15.5164 6.85059 15.2998 6.85059 15.0831C6.85059 14.8664 6.94226 14.6498 7.09226 14.4914C7.17559 14.4164 7.26725 14.3581 7.36725 14.3164C7.56725 14.2331 7.80059 14.2331 8.00059 14.3164C8.10059 14.3581 8.19225 14.4164 8.27558 14.4914C8.42558 14.6498 8.51725 14.8664 8.51725 15.0831C8.51725 15.2998 8.42558 15.5164 8.27558 15.6747C8.19225 15.7497 8.10059 15.8081 8.00059 15.8498C7.90059 15.8914 7.79225 15.9164 7.68392 15.9164Z" fill="#006650"/>
</svg>
