<svg width="21" height="21" viewBox="0 0 21 21" fill="none" xmlns="http://www.w3.org/2000/svg">
<path d="M7.26758 5.29199C6.92591 5.29199 6.64258 5.00866 6.64258 4.66699V2.16699C6.64258 1.82533 6.92591 1.54199 7.26758 1.54199C7.60924 1.54199 7.89258 1.82533 7.89258 2.16699V4.66699C7.89258 5.00866 7.60924 5.29199 7.26758 5.29199Z" fill="#292D32"/>
<path d="M13.9336 5.29199C13.5919 5.29199 13.3086 5.00866 13.3086 4.66699V2.16699C13.3086 1.82533 13.5919 1.54199 13.9336 1.54199C14.2753 1.54199 14.5586 1.82533 14.5586 2.16699V4.66699C14.5586 5.00866 14.2753 5.29199 13.9336 5.29199Z" fill="#475569"/>
<path d="M17.6842 8.70019H3.51758C3.17591 8.70019 2.89258 8.41686 2.89258 8.0752C2.89258 7.73353 3.17591 7.4502 3.51758 7.4502H17.6842C18.0259 7.4502 18.3092 7.73353 18.3092 8.0752C18.3092 8.41686 18.0259 8.70019 17.6842 8.70019Z" fill="#475569"/>
<path d="M13.9339 19.4587H7.26725C4.22559 19.4587 2.47559 17.7087 2.47559 14.667V7.58366C2.47559 4.54199 4.22559 2.79199 7.26725 2.79199H13.9339C16.9756 2.79199 18.7256 4.54199 18.7256 7.58366V14.667C18.7256 17.7087 16.9756 19.4587 13.9339 19.4587ZM7.26725 4.04199C4.88392 4.04199 3.72559 5.20033 3.72559 7.58366V14.667C3.72559 17.0503 4.88392 18.2087 7.26725 18.2087H13.9339C16.3173 18.2087 17.4756 17.0503 17.4756 14.667V7.58366C17.4756 5.20033 16.3173 4.04199 13.9339 4.04199H7.26725Z" fill="#475569"/>
<path d="M7.68392 12.5837C7.57559 12.5837 7.46725 12.5587 7.36725 12.517C7.26725 12.4753 7.17559 12.417 7.09226 12.342C7.01726 12.2587 6.95891 12.167 6.91724 12.067C6.87557 11.967 6.85059 11.8587 6.85059 11.7503C6.85059 11.5337 6.94226 11.317 7.09226 11.1587C7.17559 11.0837 7.26725 11.0253 7.36725 10.9837C7.51725 10.917 7.68393 10.9003 7.8506 10.9337C7.9006 10.942 7.95059 10.9587 8.00059 10.9837C8.05059 11.0003 8.10058 11.0253 8.15058 11.0587C8.19225 11.092 8.23391 11.1253 8.27558 11.1587C8.30891 11.2003 8.35057 11.242 8.37557 11.2837C8.40891 11.3337 8.43393 11.3837 8.4506 11.4337C8.4756 11.4837 8.49226 11.5337 8.50059 11.5837C8.50893 11.642 8.51725 11.692 8.51725 11.7503C8.51725 11.967 8.42558 12.1837 8.27558 12.342C8.11725 12.492 7.90059 12.5837 7.68392 12.5837Z" fill="#475569"/>
<path d="M10.6009 12.5837C10.3842 12.5837 10.1676 12.492 10.0093 12.342C9.97592 12.3004 9.94259 12.2587 9.90926 12.217C9.87592 12.167 9.8509 12.1171 9.83423 12.0671C9.80923 12.0171 9.79257 11.9671 9.78424 11.9171C9.7759 11.8587 9.76758 11.8087 9.76758 11.7504C9.76758 11.642 9.79257 11.5337 9.83423 11.4337C9.8759 11.3337 9.93425 11.2421 10.0093 11.1587C10.2426 10.9254 10.6176 10.8504 10.9176 10.9837C11.0259 11.0254 11.1092 11.0837 11.1926 11.1587C11.3426 11.3171 11.4342 11.5337 11.4342 11.7504C11.4342 11.8087 11.4259 11.8587 11.4176 11.9171C11.4093 11.9671 11.3926 12.0171 11.3676 12.0671C11.3509 12.1171 11.3259 12.167 11.2926 12.217C11.2592 12.2587 11.2259 12.3004 11.1926 12.342C11.1092 12.417 11.0259 12.4754 10.9176 12.5171C10.8176 12.5587 10.7092 12.5837 10.6009 12.5837Z" fill="#475569"/>
<path d="M7.68392 15.4997C7.57559 15.4997 7.46725 15.4747 7.36725 15.4331C7.26725 15.3914 7.17559 15.3331 7.09226 15.2581C7.01726 15.1747 6.95891 15.0914 6.91724 14.9831C6.87557 14.8831 6.85059 14.7747 6.85059 14.6664C6.85059 14.4497 6.94226 14.2331 7.09226 14.0747C7.17559 13.9997 7.26725 13.9414 7.36725 13.8997C7.67558 13.7664 8.04225 13.8414 8.27558 14.0747C8.30891 14.1164 8.35057 14.1581 8.37557 14.1997C8.40891 14.2497 8.43393 14.2997 8.4506 14.3497C8.4756 14.3997 8.49226 14.4497 8.50059 14.5081C8.50893 14.5581 8.51725 14.6164 8.51725 14.6664C8.51725 14.8831 8.42558 15.0997 8.27558 15.2581C8.11725 15.4081 7.90059 15.4997 7.68392 15.4997Z" fill="#292D32"/>
</svg>
