<svg width="21" height="21" viewBox="0 0 21 21" fill="none" xmlns="http://www.w3.org/2000/svg">
<path d="M7.46777 5.2915C7.12611 5.2915 6.84277 5.00817 6.84277 4.6665V2.1665C6.84277 1.82484 7.12611 1.5415 7.46777 1.5415C7.80944 1.5415 8.09277 1.82484 8.09277 2.1665V4.6665C8.09277 5.00817 7.80944 5.2915 7.46777 5.2915Z" fill="#475569"/>
<path d="M14.1338 5.2915C13.7921 5.2915 13.5088 5.00817 13.5088 4.6665V2.1665C13.5088 1.82484 13.7921 1.5415 14.1338 1.5415C14.4755 1.5415 14.7588 1.82484 14.7588 2.1665V4.6665C14.7588 5.00817 14.4755 5.2915 14.1338 5.2915Z" fill="#475569"/>
<path d="M13.3008 19.4582H8.30078C3.61745 19.4582 2.67578 17.2498 2.67578 13.6832V8.5415C2.67578 4.5915 4.00911 2.98317 7.43411 2.7915H14.1341C14.1424 2.7915 14.1591 2.7915 14.1674 2.7915C17.5924 2.98317 18.9258 4.5915 18.9258 8.5415V13.6832C18.9258 17.2498 17.9841 19.4582 13.3008 19.4582ZM7.46745 4.0415C5.13411 4.17484 3.92578 4.90817 3.92578 8.5415V13.6832C3.92578 16.8748 4.53411 18.2082 8.30078 18.2082H13.3008C17.0674 18.2082 17.6758 16.8748 17.6758 13.6832V8.5415C17.6758 4.9165 16.4758 4.17484 14.1174 4.0415H7.46745Z" fill="#475569"/>
<path d="M18.0921 15.7915H3.50879C3.16712 15.7915 2.88379 15.5082 2.88379 15.1665C2.88379 14.8248 3.16712 14.5415 3.50879 14.5415H18.0921C18.4338 14.5415 18.7171 14.8248 18.7171 15.1665C18.7171 15.5082 18.4338 15.7915 18.0921 15.7915Z" fill="#475569"/>
<path d="M10.8011 7.375C9.77611 7.375 8.90944 7.93333 8.90944 9.01667C8.90944 9.53333 9.15111 9.925 9.51777 10.175C9.00944 10.475 8.71777 10.9583 8.71777 11.525C8.71777 12.5583 9.50944 13.2 10.8011 13.2C12.0844 13.2 12.8844 12.5583 12.8844 11.525C12.8844 10.9583 12.5928 10.4667 12.0761 10.175C12.4511 9.91667 12.6844 9.53333 12.6844 9.01667C12.6844 7.93333 11.8261 7.375 10.8011 7.375ZM10.8011 9.74167C10.3678 9.74167 10.0511 9.48333 10.0511 9.075C10.0511 8.65833 10.3678 8.41667 10.8011 8.41667C11.2344 8.41667 11.5511 8.65833 11.5511 9.075C11.5511 9.48333 11.2344 9.74167 10.8011 9.74167ZM10.8011 12.1667C10.2511 12.1667 9.85111 11.8917 9.85111 11.3917C9.85111 10.8917 10.2511 10.625 10.8011 10.625C11.3511 10.625 11.7511 10.9 11.7511 11.3917C11.7511 11.8917 11.3511 12.1667 10.8011 12.1667Z" fill="#475569"/>
</svg>
