<svg width="14" height="13" viewBox="0 0 14 13" fill="none" xmlns="http://www.w3.org/2000/svg">
<path d="M7.00586 12.7354C3.6837 12.7354 0.983398 10.035 0.983398 6.71289C0.983398 3.39073 3.6837 0.69043 7.00586 0.69043C10.328 0.69043 13.0283 3.39073 13.0283 6.71289C13.0283 10.035 10.328 12.7354 7.00586 12.7354ZM7.00586 1.53077C4.14869 1.53077 1.82374 3.85572 1.82374 6.71289C1.82374 9.57006 4.14869 11.895 7.00586 11.895C9.86303 11.895 12.188 9.57006 12.188 6.71289C12.188 3.85572 9.86303 1.53077 7.00586 1.53077Z" fill="#94A3B8"/>
<path d="M9.08507 8.91464C9.01224 8.91464 8.93941 8.89784 8.87218 8.85302L7.13547 7.81659C6.7041 7.55889 6.38477 6.99306 6.38477 6.49445V4.19752C6.38477 3.96782 6.57524 3.77734 6.80494 3.77734C7.03463 3.77734 7.22511 3.96782 7.22511 4.19752V6.49445C7.22511 6.69614 7.39318 6.99306 7.56685 7.0939L9.30356 8.13032C9.50524 8.24797 9.56687 8.50568 9.44922 8.70736C9.36518 8.84181 9.22513 8.91464 9.08507 8.91464Z" fill="#94A3B8"/>
</svg>
