<svg width="20" height="21" viewBox="0 0 20 21" fill="none" xmlns="http://www.w3.org/2000/svg">
<path d="M13.3333 19.4582H6.66667C3.625 19.4582 1.875 17.7082 1.875 14.6665V6.33317C1.875 3.2915 3.625 1.5415 6.66667 1.5415H13.3333C16.375 1.5415 18.125 3.2915 18.125 6.33317V14.6665C18.125 17.7082 16.375 19.4582 13.3333 19.4582ZM6.66667 2.7915C4.28333 2.7915 3.125 3.94984 3.125 6.33317V14.6665C3.125 17.0498 4.28333 18.2082 6.66667 18.2082H13.3333C15.7167 18.2082 16.875 17.0498 16.875 14.6665V6.33317C16.875 3.94984 15.7167 2.7915 13.3333 2.7915H6.66667Z" fill="#475569"/>
<path d="M15.4163 8.20833H13.7497C12.483 8.20833 11.458 7.18333 11.458 5.91667V4.25C11.458 3.90833 11.7413 3.625 12.083 3.625C12.4247 3.625 12.708 3.90833 12.708 4.25V5.91667C12.708 6.49167 13.1747 6.95833 13.7497 6.95833H15.4163C15.758 6.95833 16.0413 7.24167 16.0413 7.58333C16.0413 7.925 15.758 8.20833 15.4163 8.20833Z" fill="#475569"/>
<path d="M10.0003 11.9585H6.66699C6.32533 11.9585 6.04199 11.6752 6.04199 11.3335C6.04199 10.9918 6.32533 10.7085 6.66699 10.7085H10.0003C10.342 10.7085 10.6253 10.9918 10.6253 11.3335C10.6253 11.6752 10.342 11.9585 10.0003 11.9585Z" fill="#475569"/>
<path d="M13.3337 15.2915H6.66699C6.32533 15.2915 6.04199 15.0082 6.04199 14.6665C6.04199 14.3248 6.32533 14.0415 6.66699 14.0415H13.3337C13.6753 14.0415 13.9587 14.3248 13.9587 14.6665C13.9587 15.0082 13.6753 15.2915 13.3337 15.2915Z" fill="#475569"/>
</svg>
