<svg width="21" height="21" viewBox="0 0 21 21" fill="none" xmlns="http://www.w3.org/2000/svg">
<path d="M13.0003 19.4582H8.00033C3.47533 19.4582 1.54199 17.5248 1.54199 12.9998V7.99984C1.54199 3.47484 3.47533 1.5415 8.00033 1.5415H9.66699C10.0087 1.5415 10.292 1.82484 10.292 2.1665C10.292 2.50817 10.0087 2.7915 9.66699 2.7915H8.00033C4.15866 2.7915 2.79199 4.15817 2.79199 7.99984V12.9998C2.79199 16.8415 4.15866 18.2082 8.00033 18.2082H13.0003C16.842 18.2082 18.2087 16.8415 18.2087 12.9998V11.3332C18.2087 10.9915 18.492 10.7082 18.8337 10.7082C19.1753 10.7082 19.4587 10.9915 19.4587 11.3332V12.9998C19.4587 17.5248 17.5253 19.4582 13.0003 19.4582Z" fill="#0F172A"/>
<path d="M7.58311 15.2415C7.07478 15.2415 6.60811 15.0581 6.26645 14.7248C5.85811 14.3165 5.68311 13.7248 5.77478 13.0998L6.13311 10.5915C6.19978 10.1081 6.51645 9.48314 6.85811 9.14147L13.4248 2.5748C15.0831 0.916471 16.7664 0.916471 18.4248 2.5748C19.3331 3.48314 19.7414 4.40814 19.6581 5.33314C19.5831 6.08314 19.1831 6.81647 18.4248 7.56647L11.8581 14.1331C11.5164 14.4748 10.8914 14.7915 10.4081 14.8581L7.89978 15.2165C7.79145 15.2415 7.68311 15.2415 7.58311 15.2415ZM14.3081 3.45814L7.74145 10.0248C7.58311 10.1831 7.39978 10.5498 7.36645 10.7665L7.00811 13.2748C6.97478 13.5165 7.02478 13.7165 7.14978 13.8415C7.27478 13.9665 7.47478 14.0165 7.71645 13.9831L10.2248 13.6248C10.4414 13.5915 10.8164 13.4081 10.9664 13.2498L17.5331 6.68314C18.0748 6.14147 18.3581 5.65814 18.3998 5.20814C18.4498 4.66647 18.1664 4.09147 17.5331 3.4498C16.1998 2.11647 15.2831 2.49147 14.3081 3.45814Z" fill="#0F172A"/>
<path d="M17.0413 8.69173C16.983 8.69173 16.9246 8.6834 16.8746 8.66673C14.683 8.05006 12.9413 6.3084 12.3246 4.11673C12.233 3.7834 12.4246 3.44173 12.758 3.34173C13.0913 3.25006 13.433 3.44173 13.5246 3.77506C14.0246 5.55006 15.433 6.9584 17.208 7.4584C17.5413 7.55006 17.733 7.90006 17.6413 8.2334C17.5663 8.51673 17.3163 8.69173 17.0413 8.69173Z" fill="#0F172A"/>
</svg>
