<svg width="25" height="25" viewBox="0 0 25 25" fill="none" xmlns="http://www.w3.org/2000/svg">
<path d="M15.7605 22.7498H9.24047C4.33047 22.7498 2.23047 20.6498 2.23047 15.7398V15.6098C2.23047 11.1698 3.98047 9.02978 7.90047 8.65978C8.30047 8.62978 8.68047 8.92978 8.72047 9.33978C8.76047 9.74978 8.46047 10.1198 8.04047 10.1598C4.90047 10.4498 3.73047 11.9298 3.73047 15.6198V15.7498C3.73047 19.8198 5.17047 21.2598 9.24047 21.2598H15.7605C19.8305 21.2598 21.2705 19.8198 21.2705 15.7498V15.6198C21.2705 11.9098 20.0805 10.4298 16.8805 10.1598C16.4705 10.1198 16.1605 9.75978 16.2005 9.34978C16.2405 8.93978 16.5905 8.62978 17.0105 8.66978C20.9905 9.00978 22.7705 11.1598 22.7705 15.6298V15.7598C22.7705 20.6498 20.6705 22.7498 15.7605 22.7498Z" fill="#0F172A"/>
<path d="M12.5 16.2501C12.09 16.2501 11.75 15.9101 11.75 15.5001V4.12012C11.75 3.71012 12.09 3.37012 12.5 3.37012C12.91 3.37012 13.25 3.71012 13.25 4.12012V15.5001C13.25 15.9101 12.91 16.2501 12.5 16.2501Z" fill="#0F172A"/>
<path d="M15.8498 7.09994C15.6598 7.09994 15.4698 7.02994 15.3198 6.87994L12.4998 4.05994L9.67984 6.87994C9.38984 7.16994 8.90984 7.16994 8.61984 6.87994C8.32984 6.58994 8.32984 6.10994 8.61984 5.81994L11.9698 2.46994C12.2598 2.17994 12.7398 2.17994 13.0298 2.46994L16.3798 5.81994C16.6698 6.10994 16.6698 6.58994 16.3798 6.87994C16.2398 7.02994 16.0398 7.09994 15.8498 7.09994Z" fill="#0F172A"/>
</svg>
