<svg width="17" height="16" viewBox="0 0 17 16" fill="none" xmlns="http://www.w3.org/2000/svg">
<g clip-path="url(#clip0_2205_9127)">
<path opacity="0.4" d="M13.6504 2.36016L2.37042 13.6402C1.70375 12.9735 1.34375 12.0068 1.34375 10.7935V5.20683C1.34375 2.78016 2.79042 1.3335 5.21708 1.3335H10.8038C12.0171 1.3335 12.9837 1.6935 13.6504 2.36016Z" fill="#0F172A"/>
<path opacity="0.4" d="M14.6773 5.2066V9.2666L13.5906 8.33326C13.0706 7.8866 12.2306 7.8866 11.7106 8.33326L8.93727 10.7133C8.46393 11.1199 7.71727 11.1599 7.19727 10.8133L14.4173 3.59326C14.5106 3.8466 14.5773 4.11326 14.6173 4.39993C14.6573 4.65326 14.6773 4.9266 14.6773 5.2066Z" fill="#0F172A"/>
<path d="M14.6778 9.26687V10.7935C14.6778 13.2202 13.2312 14.6669 10.8045 14.6669H5.21783C4.93783 14.6669 4.66449 14.6469 4.41116 14.6069C4.12449 14.5669 3.85783 14.5002 3.60449 14.4069L7.19783 10.8135C7.71783 11.1602 8.46449 11.1202 8.93783 10.7135L11.7112 8.33354C12.2312 7.88687 13.0712 7.88687 13.5912 8.33354L14.6778 9.26687Z" fill="#0F172A"/>
<path d="M14.5243 1.48643C14.3243 1.28643 13.9977 1.28643 13.7977 1.48643L1.49766 13.7931C1.29766 13.9931 1.29766 14.3198 1.49766 14.5198C1.59766 14.6131 1.72432 14.6664 1.85766 14.6664C1.99099 14.6664 2.11766 14.6131 2.21766 14.5131L14.5243 2.20643C14.731 2.00643 14.731 1.68643 14.5243 1.48643Z" fill="#0F172A"/>
<path d="M5.34448 6.91992C6.22077 6.91992 6.93115 6.20954 6.93115 5.33325C6.93115 4.45696 6.22077 3.74658 5.34448 3.74658C4.46819 3.74658 3.75781 4.45696 3.75781 5.33325C3.75781 6.20954 4.46819 6.91992 5.34448 6.91992Z" fill="#0F172A"/>
</g>
<defs>
<clipPath id="clip0_2205_9127">
<rect width="16" height="16" fill="white" transform="translate(0.0107422)"/>
</clipPath>
</defs>
</svg>
