<svg width="21" height="21" viewBox="0 0 21 21" fill="none" xmlns="http://www.w3.org/2000/svg">
<path opacity="0.48" d="M17.1527 8.8335V15.5002C17.1527 18.0002 16.3193 18.8335 13.8193 18.8335H7.15267C4.65267 18.8335 3.81934 18.0002 3.81934 15.5002V8.8335H17.1527Z" fill="#FFC100"/>
<path d="M18.4271 6.33317V7.1665C18.4271 8.08317 17.9854 8.83317 16.7604 8.83317H4.26042C2.98542 8.83317 2.59375 8.08317 2.59375 7.1665V6.33317C2.59375 5.4165 2.98542 4.6665 4.26042 4.6665H16.7604C17.9854 4.6665 18.4271 5.4165 18.4271 6.33317Z" fill="#FFC100"/>
<path d="M10.2107 4.66686H5.61073C5.32739 4.35853 5.33573 3.88353 5.63573 3.58353L6.81906 2.4002C7.12739 2.09186 7.63573 2.09186 7.94406 2.4002L10.2107 4.66686Z" fill="#FE5960"/>
<path d="M15.4027 4.66686H10.8027L13.0694 2.4002C13.3777 2.09186 13.8861 2.09186 14.1944 2.4002L15.3777 3.58353C15.6777 3.88353 15.6861 4.35853 15.4027 4.66686Z" fill="#FE5960"/>
<path d="M7.96094 8.8335V13.1168C7.96094 13.7835 8.69427 14.1752 9.2526 13.8168L10.0359 13.3002C10.3193 13.1168 10.6776 13.1168 10.9526 13.3002L11.6943 13.8002C12.2443 14.1668 12.9859 13.7752 12.9859 13.1085V8.8335H7.96094Z" fill="#FE5960"/>
</svg>
