<svg width="21" height="20" viewBox="0 0 21 20" fill="none" xmlns="http://www.w3.org/2000/svg">
<mask id="mask0_1325_14451" style="mask-type:alpha" maskUnits="userSpaceOnUse" x="0" y="0" width="21" height="20">
<rect x="0.5" width="20" height="20" rx="8" fill="#D9D9D9"/>
</mask>
<g mask="url(#mask0_1325_14451)">
<g clip-path="url(#clip0_1325_14451)">
<path d="M17.4338 8.6958H11.3154C11.0453 8.6958 10.8262 8.91436 10.8262 9.18477V11.1395C10.8262 11.4096 11.0453 11.6287 11.3154 11.6287H14.761C14.3837 12.6078 13.6797 13.4278 12.7812 13.9487L14.2504 16.492C16.607 15.1291 18.0004 12.7376 18.0004 10.0604C18.0004 9.6793 17.9723 9.40684 17.916 9.0998C17.8732 8.8666 17.6708 8.69609 17.4341 8.69609L17.4338 8.6958Z" fill="#167EE6"/>
<path d="M10.4997 14.5653C8.81367 14.5653 7.3415 13.6439 6.55107 12.2808L4.00781 13.7465C5.30215 15.9895 7.72646 17.5 10.4997 17.5C11.8603 17.5 13.1438 17.1338 14.2497 16.4954V16.4919L12.7805 13.9486C12.1084 14.3383 11.3309 14.5653 10.4997 14.5653Z" fill="#12B347"/>
<path d="M14.25 16.4955V16.492L12.7808 13.9487C12.1087 14.3384 11.3312 14.5654 10.5 14.5654V17.5001C11.8605 17.5001 13.1443 17.1339 14.25 16.4955Z" fill="#0F993E"/>
<path d="M5.93467 9.9999C5.93467 9.16875 6.16143 8.39121 6.55107 7.71914L4.00781 6.25342C3.36621 7.35586 3 8.63584 3 9.9999C3 11.364 3.36621 12.6439 4.00811 13.7464L6.55137 12.2807C6.16172 11.6086 5.93496 10.8311 5.93496 9.9999H5.93467Z" fill="#FFD500"/>
<path d="M10.4997 5.43467C11.5992 5.43467 12.6094 5.82549 13.398 6.47529C13.5926 6.63555 13.8756 6.62412 14.0537 6.4457L15.4386 5.06084C15.6407 4.85869 15.6264 4.52734 15.4104 4.34014C14.0889 3.19346 12.3691 2.5 10.4997 2.5C7.72646 2.5 5.30215 4.01055 4.00781 6.25352L6.55107 7.71924C7.3418 6.35605 8.81367 5.43467 10.4997 5.43467Z" fill="#FF4B26"/>
<path d="M13.3983 6.47529C13.5929 6.63555 13.8759 6.62412 14.054 6.4457L15.4389 5.06084C15.641 4.85869 15.6267 4.52734 15.4107 4.34014C14.0892 3.19346 12.3694 2.5 10.5 2.5V5.43467C11.5995 5.43467 12.6097 5.82549 13.3983 6.47529Z" fill="#D93F21"/>
</g>
</g>
<defs>
<clipPath id="clip0_1325_14451">
<rect x="3" y="2.5" width="15" height="15" rx="7.5" fill="white"/>
</clipPath>
</defs>
</svg>
