<svg width="98" height="100" viewBox="0 0 98 100" fill="none" xmlns="http://www.w3.org/2000/svg">
<path d="M20.6562 12.8779C8.26055 21.5252 0.148438 35.8885 0.148438 52.1486C0.148438 68.4088 8.26055 82.7721 20.6562 91.4193V12.8779Z" fill="#E2E8F0"/>
<path d="M75.3438 12.8779V91.4191C87.7395 82.7721 95.8516 68.4088 95.8516 52.1486C95.8516 35.8885 87.7395 21.5252 75.3438 12.8779Z" fill="#E2E8F0"/>
<path d="M75.3438 27.9385V76.3584C81.0545 69.9133 84.5234 61.4367 84.5234 52.1484C84.5234 42.8602 81.0545 34.3836 75.3438 27.9385Z" fill="#CBD5E1"/>
<path d="M20.6562 27.9385C14.9455 34.3836 11.4766 42.8602 11.4766 52.1484C11.4766 61.4367 14.9455 69.9133 20.6562 76.3584V27.9385Z" fill="#CBD5E1"/>
<path d="M71.6328 0H24.3672C22.2098 0 20.4609 1.74883 20.4609 3.90625V91.2836C22.0221 92.3842 23.6529 93.392 25.3438 94.3027H25.5391V14.4281L26.773 14.2578H69.2268L70.4609 14.4281V94.3029H70.6562C72.3471 93.392 73.9779 92.3844 75.5391 91.2838V3.90625C75.5391 1.74883 73.7902 0 71.6328 0Z" fill="#475569"/>
<path d="M25.3438 14.2578L26.7598 14.0625H29.8359V3.90625C29.8359 1.74883 31.5848 0 33.7422 0H24.3672C22.2098 0 20.4609 1.74883 20.4609 3.90625V91.2836C22.0217 92.384 23.6531 93.3896 25.3438 94.3002V14.2578Z" fill="#475569"/>
<path d="M69.2402 14.0625H26.7598L25.3438 14.2578V94.3051C32.0881 97.9373 39.8029 100 48 100C56.1971 100 63.9119 97.9373 70.6562 94.3051V14.2578L69.2402 14.0625Z" fill="white"/>
<path d="M68.7031 4.88281H27.2969C26.2182 4.88281 25.3438 5.75723 25.3438 6.83594V14.2578H70.6562V6.83594C70.6562 5.75723 69.7818 4.88281 68.7031 4.88281Z" fill="#7CB592"/>
<path d="M66.3594 11.1328C67.1684 11.1328 67.8242 10.477 67.8242 9.66797C67.8242 8.85896 67.1684 8.20312 66.3594 8.20312C65.5504 8.20312 64.8945 8.85896 64.8945 9.66797C64.8945 10.477 65.5504 11.1328 66.3594 11.1328Z" fill="white"/>
<path d="M29.6406 11.1328C30.4496 11.1328 31.1055 10.477 31.1055 9.66797C31.1055 8.85896 30.4496 8.20312 29.6406 8.20312C28.8316 8.20312 28.1758 8.85896 28.1758 9.66797C28.1758 10.477 28.8316 11.1328 29.6406 11.1328Z" fill="white"/>
<path d="M61.8672 11.1328C62.6762 11.1328 63.332 10.477 63.332 9.66797C63.332 8.85896 62.6762 8.20312 61.8672 8.20312C61.0582 8.20312 60.4023 8.85896 60.4023 9.66797C60.4023 10.477 61.0582 11.1328 61.8672 11.1328Z" fill="white"/>
<path d="M84.3281 75.4028H33.7422C32.6635 75.4028 31.7891 74.5284 31.7891 73.4497V51.5259C31.7891 50.4472 32.6635 49.5728 33.7422 49.5728H84.3281C85.4068 49.5728 86.2812 50.4472 86.2812 51.5259V73.4497C86.2812 74.5284 85.4068 75.4028 84.3281 75.4028Z" fill="#009978"/>
<path d="M41.1641 73.4497V51.5259C41.1641 50.4472 42.0385 49.5728 43.1172 49.5728H33.7422C32.6635 49.5728 31.7891 50.4472 31.7891 51.5259V73.4497C31.7891 74.5284 32.6635 75.4028 33.7422 75.4028H43.1172C42.0385 75.4028 41.1641 74.5284 41.1641 73.4497Z" fill="#009978"/>
<path d="M79.5977 58.6792H57.5273C56.9881 58.6792 56.5508 58.2419 56.5508 57.7026V56.7261C56.5508 56.1868 56.9881 55.7495 57.5273 55.7495H79.5977C80.1369 55.7495 80.5742 56.1868 80.5742 56.7261V57.7026C80.5742 58.2419 80.1371 58.6792 79.5977 58.6792Z" fill="white"/>
<path d="M79.5977 63.9526H57.5273C56.9881 63.9526 56.5508 63.5153 56.5508 62.9761V61.9995C56.5508 61.4603 56.9881 61.0229 57.5273 61.0229H79.5977C80.1369 61.0229 80.5742 61.4603 80.5742 61.9995V62.9761C80.5742 63.5153 80.1371 63.9526 79.5977 63.9526Z" fill="white"/>
<path d="M68.9437 69.2261H57.5273C56.9881 69.2261 56.5508 68.7888 56.5508 68.2495V67.2729C56.5508 66.7337 56.9881 66.2964 57.5273 66.2964H68.9437C69.483 66.2964 69.9203 66.7337 69.9203 67.2729V68.2495C69.9203 68.7888 69.4832 69.2261 68.9437 69.2261Z" fill="white"/>
<path d="M41.1535 64.5568H50.2445C50.775 64.5568 51.2754 64.6824 51.7232 64.8998V60.7117C51.7232 57.3984 49.0123 54.6875 45.699 54.6875C42.3857 54.6875 39.6748 57.3984 39.6748 60.7117V64.8998C40.1229 64.6824 40.6232 64.5568 41.1535 64.5568Z" fill="#FEDF30"/>
<path d="M43.8619 60.7117C43.8619 58.1338 45.5033 55.9209 47.7926 55.0656C47.1396 54.8217 46.4344 54.6875 45.699 54.6875C42.3857 54.6875 39.6748 57.3984 39.6748 60.7117V64.8998C40.1227 64.6824 40.623 64.5568 41.1533 64.5568H43.8617L43.8619 60.7117Z" fill="#FED402"/>
<path d="M42.626 68.9756C42.6588 70.6461 44.0207 71.9908 45.699 71.9908C47.3773 71.9908 48.7393 70.6461 48.7721 68.9756H42.626Z" fill="#FEDF30"/>
<path d="M45.1742 68.9756H42.626C42.6588 70.6461 44.0207 71.9908 45.699 71.9908C46.1543 71.9908 46.5846 71.8891 46.973 71.7115C45.9297 71.2346 45.1982 70.193 45.1742 68.9756Z" fill="#FAC600"/>
<path d="M53.3164 69.1713H38.082C37.7584 69.1713 37.4961 68.909 37.4961 68.5854V67.9584C37.4961 65.9383 39.1336 64.3008 41.1537 64.3008H50.2447C52.2648 64.3008 53.9023 65.9383 53.9023 67.9584V68.5854C53.9023 68.909 53.64 69.1713 53.3164 69.1713Z" fill="#FED402"/>
<path d="M45.4689 64.3008H41.1537C39.1336 64.3008 37.4961 65.9383 37.4961 67.9584V68.5854C37.4961 68.909 37.7584 69.1713 38.082 69.1713H41.8113V67.9584C41.8111 65.9383 43.4488 64.3008 45.4689 64.3008Z" fill="#FAC600"/>
<path d="M62.0625 83.4961H33.9375C33.3982 83.4961 32.9609 83.0588 32.9609 82.5195V81.543C32.9609 81.0037 33.3982 80.5664 33.9375 80.5664H62.0625C62.6018 80.5664 63.0391 81.0037 63.0391 81.543V82.5195C63.0391 83.0588 62.6018 83.4961 62.0625 83.4961Z" fill="#94A3B8"/>
<path d="M62.0625 90.332H33.9375C33.3982 90.332 32.9609 89.8947 32.9609 89.3555V88.3789C32.9609 87.8396 33.3982 87.4023 33.9375 87.4023H62.0625C62.6018 87.4023 63.0391 87.8396 63.0391 88.3789V89.3555C63.0391 89.8947 62.6018 90.332 62.0625 90.332Z" fill="#94A3B8"/>
<path d="M53.5752 22.3486V25.083C53.5752 25.4066 53.8375 25.6689 54.1611 25.6689H57.3742V42.3826C57.3742 42.7062 57.6365 42.9686 57.9602 42.9686H60.6945C61.0182 42.9686 61.2805 42.7062 61.2805 42.3826V22.3486C61.2805 22.025 61.0182 21.7627 60.6945 21.7627H54.1611C53.8375 21.7627 53.5752 22.025 53.5752 22.3486Z" fill="#94A3B8"/>
<path d="M46.2709 21.7627H37.2574C36.9337 21.7627 36.6714 22.025 36.6714 22.3486V25.083C36.6714 25.4066 36.9337 25.6689 37.2574 25.6689H46.2709C46.7845 25.6689 47.2011 26.0854 47.2011 26.5992V29.4824C47.2011 29.9961 46.7847 30.4127 46.2709 30.4127H41.4462C41.1226 30.4127 40.8603 30.675 40.8603 30.9986V33.733C40.8603 34.0566 41.1226 34.3189 41.4462 34.3189H46.2709C46.7845 34.3189 47.2011 34.7354 47.2011 35.2492V38.1324C47.2011 38.6461 46.7847 39.0627 46.2709 39.0627H40.8603C40.4744 39.0627 40.1425 38.8264 40.0019 38.4908C39.9111 38.2738 39.699 38.1326 39.4636 38.1326H36.6513C36.2984 38.1326 36.0209 38.4434 36.0689 38.793C36.3919 41.1484 38.4175 42.9689 40.8603 42.9689H46.271C48.9421 42.9689 51.1074 40.8037 51.1074 38.1326V35.2492C51.1074 34.1695 50.7515 33.1717 50.1513 32.366C50.7515 31.5604 51.1074 30.5623 51.1074 29.4828V26.5996C51.1074 23.9279 48.9419 21.7627 46.2709 21.7627Z" fill="#94A3B8"/>
</svg>
