<svg width="25" height="25" viewBox="0 0 25 25" fill="none" xmlns="http://www.w3.org/2000/svg">
<path d="M15.4004 23.25H9.40039C4.99039 23.25 3.65039 21.91 3.65039 17.5V7.5C3.65039 3.09 4.99039 1.75 9.40039 1.75H15.4004C19.8104 1.75 21.1504 3.09 21.1504 7.5V17.5C21.1504 21.91 19.8104 23.25 15.4004 23.25ZM9.40039 3.25C5.82039 3.25 5.15039 3.93 5.15039 7.5V17.5C5.15039 21.07 5.82039 21.75 9.40039 21.75H15.4004C18.9804 21.75 19.6504 21.07 19.6504 17.5V7.5C19.6504 3.93 18.9804 3.25 15.4004 3.25H9.40039Z" fill="#475569"/>
<path d="M14.4004 6.75H10.4004C9.99039 6.75 9.65039 6.41 9.65039 6C9.65039 5.59 9.99039 5.25 10.4004 5.25H14.4004C14.8104 5.25 15.1504 5.59 15.1504 6C15.1504 6.41 14.8104 6.75 14.4004 6.75Z" fill="#475569"/>
<path d="M12.4006 20.3598C11.1306 20.3598 10.1006 19.3298 10.1006 18.0598C10.1006 16.7898 11.1306 15.7598 12.4006 15.7598C13.6706 15.7598 14.7006 16.7898 14.7006 18.0598C14.7006 19.3298 13.6706 20.3598 12.4006 20.3598ZM12.4006 17.2498C11.9606 17.2498 11.6006 17.6098 11.6006 18.0498C11.6006 18.4898 11.9606 18.8498 12.4006 18.8498C12.8406 18.8498 13.2006 18.4898 13.2006 18.0498C13.2006 17.6098 12.8406 17.2498 12.4006 17.2498Z" fill="#475569"/>
</svg>
