<svg width="21" height="21" viewBox="0 0 21 21" fill="none" xmlns="http://www.w3.org/2000/svg">
<path opacity="0.4" d="M4.1453 14.4625L4.13001 14.459L4.11454 14.4565C3.9465 14.4297 3.77878 14.3816 3.61684 14.3228C3.08582 14.1241 2.67771 13.8038 2.39647 13.3481C2.11149 12.8863 1.93555 12.2504 1.93555 11.3919V7.10023C1.93555 5.9122 2.27247 5.14589 2.7841 4.67081C3.30244 4.1895 4.07885 3.93359 5.10221 3.93359H12.4272C13.2949 3.93359 13.9873 4.11811 14.4919 4.46681C14.9846 4.80723 15.3447 5.33562 15.5023 6.12536C15.5569 6.43803 15.5939 6.74796 15.5939 7.10023V11.3919C15.5939 12.58 15.257 13.3463 14.7453 13.8213C14.227 14.3026 13.4506 14.5586 12.4272 14.5586H5.10221C4.75592 14.5586 4.4354 14.5277 4.1453 14.4625Z" fill="#944DE7" stroke="#944DE7"/>
<path d="M6.1218 16.824L6.12181 16.824L6.11787 16.8226C5.49791 16.5933 5.02581 16.1879 4.74173 15.5481C4.86119 15.5549 4.98165 15.5582 5.1028 15.5582H12.4278C13.6044 15.5582 14.6614 15.2641 15.4264 14.5537C16.1981 13.8372 16.5945 12.7702 16.5945 11.3915V7.09984C16.5945 6.97903 16.5915 6.86121 16.5855 6.74603C16.9564 6.91541 17.2592 7.15124 17.4925 7.45338C17.8599 7.92913 18.0945 8.62045 18.0945 9.59984V13.8915C18.0945 15.0796 17.7575 15.8459 17.2459 16.3209C16.7276 16.8023 15.9512 17.0582 14.9278 17.0582H7.6028C7.02885 17.0582 6.53388 16.9804 6.1218 16.824Z" fill="#944DE7" stroke="#944DE7"/>
<path d="M10.4606 9.24982C10.4606 10.1887 9.69944 10.9498 8.76056 10.9498C7.82167 10.9498 7.06055 10.1887 7.06055 9.24982C7.06055 8.31093 7.82167 7.5498 8.76056 7.5498C9.69944 7.5498 10.4606 8.31093 10.4606 9.24982Z" fill="#944DE7" stroke="#944DE7"/>
<path d="M3.86914 8C3.86914 7.96985 3.88143 7.93857 3.90707 7.91293C3.93271 7.88728 3.96399 7.875 3.99414 7.875C4.06366 7.875 4.11914 7.93012 4.11914 8V10.5C4.11914 10.5301 4.10686 10.5614 4.08121 10.5871C4.05557 10.6127 4.02429 10.625 3.99414 10.625C3.96399 10.625 3.93271 10.6127 3.90707 10.5871C3.88143 10.5614 3.86914 10.5301 3.86914 10.5V8Z" fill="#944DE7" stroke="#944DE7"/>
<path d="M13.5195 7.375C13.1779 7.375 12.8945 7.65833 12.8945 8V10.5C12.8945 10.8417 13.1779 11.125 13.5195 11.125C13.8612 11.125 14.1445 10.8417 14.1445 10.5V8C14.1445 7.65833 13.8695 7.375 13.5195 7.375Z" fill="#292D32"/>
</svg>
