<svg width="12" height="13" viewBox="0 0 12 13" fill="none" xmlns="http://www.w3.org/2000/svg">
<g clip-path="url(#clip0_1346_19110)">
<path d="M9.49609 1.69531L8.99609 1.69531L8.99609 1.19531C8.99609 1.0627 8.94342 0.935527 8.84965 0.841759C8.75588 0.747991 8.6287 0.695312 8.49609 0.695312C8.36349 0.695312 8.23631 0.747991 8.14254 0.841759C8.04877 0.935527 7.99609 1.0627 7.99609 1.19531L7.99609 1.69531L3.99609 1.69531L3.99609 1.19531C3.99609 1.0627 3.94342 0.935527 3.84965 0.841759C3.75588 0.747991 3.6287 0.695312 3.49609 0.695312C3.36349 0.695312 3.23631 0.747991 3.14254 0.841759C3.04877 0.935527 2.99609 1.0627 2.99609 1.19531L2.99609 1.69531L2.49609 1.69531C1.8333 1.69611 1.19787 1.95975 0.729204 2.42842C0.260535 2.89709 -0.00311232 3.53252 -0.00390625 4.19531L-0.00390625 10.1953C-0.00311232 10.8581 0.260535 11.4935 0.729204 11.9622C1.19787 12.4309 1.8333 12.6945 2.49609 12.6953L9.49609 12.6953C10.1589 12.6945 10.7943 12.4309 11.263 11.9622C11.7317 11.4935 11.9953 10.8581 11.9961 10.1953L11.9961 4.19531C11.9953 3.53252 11.7317 2.89709 11.263 2.42842C10.7943 1.95975 10.1589 1.69611 9.49609 1.69531ZM0.996094 4.19531C0.996094 3.79749 1.15413 3.41596 1.43543 3.13465C1.71674 2.85335 2.09827 2.69531 2.49609 2.69531L9.49609 2.69531C9.89392 2.69531 10.2754 2.85335 10.5568 3.13465C10.8381 3.41596 10.9961 3.79749 10.9961 4.19531L10.9961 4.69531L0.996094 4.69531L0.996094 4.19531ZM9.49609 11.6953L2.49609 11.6953C2.09827 11.6953 1.71674 11.5373 1.43543 11.256C1.15413 10.9747 0.996094 10.5931 0.996094 10.1953L0.996094 5.69531L10.9961 5.69531L10.9961 10.1953C10.9961 10.5931 10.8381 10.9747 10.5568 11.256C10.2754 11.5373 9.89392 11.6953 9.49609 11.6953Z" fill="#94A3B8"/>
<path d="M5.99609 8.94531C6.41031 8.94531 6.74609 8.60953 6.74609 8.19531C6.74609 7.7811 6.41031 7.44531 5.99609 7.44531C5.58188 7.44531 5.24609 7.7811 5.24609 8.19531C5.24609 8.60953 5.58188 8.94531 5.99609 8.94531Z" fill="#94A3B8"/>
<path d="M3.49609 8.94531C3.91031 8.94531 4.24609 8.60953 4.24609 8.19531C4.24609 7.7811 3.91031 7.44531 3.49609 7.44531C3.08188 7.44531 2.74609 7.7811 2.74609 8.19531C2.74609 8.60953 3.08188 8.94531 3.49609 8.94531Z" fill="#94A3B8"/>
<path d="M8.49609 8.94531C8.91031 8.94531 9.24609 8.60953 9.24609 8.19531C9.24609 7.7811 8.91031 7.44531 8.49609 7.44531C8.08188 7.44531 7.74609 7.7811 7.74609 8.19531C7.74609 8.60953 8.08188 8.94531 8.49609 8.94531Z" fill="#94A3B8"/>
</g>
<defs>
<clipPath id="clip0_1346_19110">
<rect width="12" height="12" fill="white" transform="translate(-0.00390625 0.695312)"/>
</clipPath>
</defs>
</svg>
