<svg width="25" height="25" viewBox="0 0 25 25" fill="none" xmlns="http://www.w3.org/2000/svg">
<path d="M12.2002 15.5C13.857 15.5 15.2002 14.1569 15.2002 12.5C15.2002 10.8431 13.857 9.5 12.2002 9.5C10.5433 9.5 9.2002 10.8431 9.2002 12.5C9.2002 14.1569 10.5433 15.5 12.2002 15.5Z" stroke="#475569" stroke-width="1.5" stroke-miterlimit="10" stroke-linecap="round" stroke-linejoin="round"/>
<path d="M2.2002 13.3799V11.6199C2.2002 10.5799 3.0502 9.71994 4.1002 9.71994C5.9102 9.71994 6.6502 8.43994 5.7402 6.86994C5.2202 5.96994 5.5302 4.79994 6.4402 4.27994L8.1702 3.28994C8.9602 2.81994 9.9802 3.09994 10.4502 3.88994L10.5602 4.07994C11.4602 5.64994 12.9402 5.64994 13.8502 4.07994L13.9602 3.88994C14.4302 3.09994 15.4502 2.81994 16.2402 3.28994L17.9702 4.27994C18.8802 4.79994 19.1902 5.96994 18.6702 6.86994C17.7602 8.43994 18.5002 9.71994 20.3102 9.71994C21.3502 9.71994 22.2102 10.5699 22.2102 11.6199V13.3799C22.2102 14.4199 21.3602 15.2799 20.3102 15.2799C18.5002 15.2799 17.7602 16.5599 18.6702 18.1299C19.1902 19.0399 18.8802 20.1999 17.9702 20.7199L16.2402 21.7099C15.4502 22.1799 14.4302 21.8999 13.9602 21.1099L13.8502 20.9199C12.9502 19.3499 11.4702 19.3499 10.5602 20.9199L10.4502 21.1099C9.9802 21.8999 8.9602 22.1799 8.1702 21.7099L6.4402 20.7199C5.5302 20.1999 5.2202 19.0299 5.7402 18.1299C6.6502 16.5599 5.9102 15.2799 4.1002 15.2799C3.0502 15.2799 2.2002 14.4199 2.2002 13.3799Z" stroke="#475569" stroke-width="1.5" stroke-miterlimit="10" stroke-linecap="round" stroke-linejoin="round"/>
</svg>
