<svg width="16" height="22" viewBox="0 0 16 22" fill="none" xmlns="http://www.w3.org/2000/svg">
<path d="M13.648 6.9192H11.601C11.187 6.9192 10.851 7.2547 10.851 7.6692C10.851 8.0837 11.187 8.4192 11.601 8.4192H13.6485C14.062 8.4192 14.3985 8.7557 14.3985 9.1692V18.9772C14.3985 19.3907 14.062 19.7272 13.6485 19.7272H2.37402C1.96052 19.7272 1.62402 19.3907 1.62402 18.9772V9.1692C1.62402 8.7557 1.96052 8.4192 2.37402 8.4192H4.42152C4.83602 8.4192 5.17152 8.0837 5.17152 7.6692C5.17152 7.2547 4.83602 6.9192 4.42152 6.9192H2.37402C1.13352 6.9192 0.124023 7.9287 0.124023 9.1692V18.9772C0.124023 20.2177 1.13352 21.2272 2.37402 21.2272H13.6485C14.889 21.2272 15.8985 20.2177 15.8985 18.9772V9.1692C15.898 7.9282 14.889 6.9192 13.648 6.9192ZM5.21452 5.4052L7.28602 3.3337V13.2077C7.28602 13.6217 7.62152 13.9577 8.03602 13.9577C8.45052 13.9577 8.78602 13.6217 8.78602 13.2077V3.3337L10.8575 5.4052C11.004 5.5517 11.196 5.6247 11.388 5.6247C11.58 5.6247 11.772 5.5517 11.9185 5.4052C12.2115 5.1127 12.2115 4.6372 11.9185 4.3447L8.56702 0.992699C8.27352 0.699699 7.79902 0.699699 7.50602 0.992699L4.15402 4.3447C3.86102 4.6372 3.86102 5.1127 4.15402 5.4052C4.44702 5.6982 4.92152 5.6982 5.21452 5.4052Z" fill="#475569"/>
</svg>
