<svg width="25" height="25" viewBox="0 0 25 25" fill="none" xmlns="http://www.w3.org/2000/svg">
<path d="M2.50014 23.2502C2.30014 23.2502 2.11011 23.1702 1.97011 23.0302C1.78011 22.8402 1.70016 22.5602 1.77016 22.3002L3.03017 17.5902C2.19017 16.0302 1.75014 14.2702 1.75014 12.4902C1.75014 6.56023 6.57014 1.74023 12.5001 1.74023C18.4301 1.74023 23.2501 6.56023 23.2501 12.4902C23.2501 18.4202 18.4301 23.2402 12.5001 23.2402C10.6901 23.2402 8.92017 22.7902 7.34017 21.9302L2.70015 23.2202C2.63015 23.2402 2.57014 23.2502 2.50014 23.2502ZM7.44014 20.3802C7.57014 20.3802 7.70015 20.4203 7.82015 20.4803C9.23015 21.3103 10.8501 21.7502 12.5001 21.7502C17.6001 21.7502 21.7501 17.6002 21.7501 12.5002C21.7501 7.40024 17.6001 3.25024 12.5001 3.25024C7.40014 3.25024 3.25014 7.40024 3.25014 12.5002C3.25014 14.1302 3.68013 15.7202 4.49013 17.1202C4.59013 17.2902 4.62015 17.5002 4.57015 17.6902L3.57015 21.4302L7.25014 20.4102C7.31014 20.3902 7.38014 20.3802 7.44014 20.3802Z" fill="#128C7E"/>
<path d="M15.2402 18.2598C14.6202 18.2598 13.9802 18.1198 13.3102 17.8298C12.6802 17.5598 12.0502 17.1998 11.4402 16.7498C10.8402 16.3098 10.2503 15.8098 9.71027 15.2698C9.17027 14.7198 8.67022 14.1398 8.23022 13.5398C7.78022 12.9098 7.42022 12.2898 7.16022 11.6798C6.88022 11.0198 6.74023 10.3698 6.74023 9.7498C6.74023 9.3098 6.82021 8.8898 6.97021 8.4998C7.13021 8.0898 7.39022 7.71979 7.73022 7.39979C8.37022 6.76979 9.29026 6.53981 10.0203 6.88981C10.2703 6.99981 10.4803 7.17981 10.6403 7.41981L11.8002 9.04979C11.9202 9.20979 12.0103 9.37979 12.0803 9.54979C12.1603 9.74979 12.2103 9.94981 12.2103 10.1398C12.2103 10.3998 12.1402 10.6598 12.0002 10.8898C11.9102 11.0398 11.7802 11.2198 11.6102 11.3898L11.4802 11.5298C11.5402 11.6098 11.6102 11.7098 11.7202 11.8298C11.9302 12.0698 12.1602 12.3298 12.4102 12.5798C12.6602 12.8198 12.9102 13.0598 13.1602 13.2698C13.2802 13.3698 13.3803 13.4498 13.4603 13.4998L13.6002 13.3598C13.7802 13.1798 13.9603 13.0398 14.1403 12.9498C14.4703 12.7398 14.9802 12.6898 15.4302 12.8798C15.5902 12.9398 15.7502 13.0298 15.9202 13.1498L17.5903 14.3298C17.8203 14.4898 18.0002 14.7098 18.1202 14.9598C18.2202 15.2098 18.2603 15.4298 18.2603 15.6598C18.2603 15.9598 18.1902 16.2498 18.0602 16.5298C17.9302 16.7898 17.7802 17.0198 17.6002 17.2298C17.2802 17.5798 16.9103 17.8398 16.5103 18.0098C16.1103 18.1798 15.6802 18.2598 15.2402 18.2598ZM9.29022 8.23979C9.23022 8.23979 9.03027 8.23979 8.78027 8.48979C8.59027 8.66979 8.46024 8.85981 8.37024 9.06981C8.28024 9.27981 8.24023 9.51981 8.24023 9.75981C8.24023 10.1798 8.34022 10.6298 8.54022 11.1098C8.75022 11.6098 9.06025 12.1398 9.44025 12.6698C9.83025 13.1998 10.2703 13.7298 10.7603 14.2198C11.2503 14.6998 11.7702 15.1498 12.3102 15.5498C12.8302 15.9298 13.3603 16.2298 13.8903 16.4598C14.6503 16.7898 15.3502 16.8698 15.9202 16.6298C16.1202 16.5498 16.3002 16.4098 16.4802 16.2298C16.5702 16.1298 16.6403 16.0298 16.7003 15.8998C16.7303 15.8298 16.7502 15.7498 16.7502 15.6798C16.7502 15.6598 16.7502 15.6298 16.7202 15.5698L15.0502 14.4098C14.9802 14.3598 14.9102 14.3198 14.8502 14.2998C14.8102 14.3198 14.7503 14.3498 14.6403 14.4598L14.2603 14.8398C13.9703 15.1298 13.5103 15.2098 13.1403 15.0798L12.9603 14.9998C12.7303 14.8798 12.4702 14.6998 12.1802 14.4498C11.9002 14.2098 11.6303 13.9598 11.3403 13.6798C11.0603 13.3898 10.8103 13.1198 10.5703 12.8398C10.3103 12.5298 10.1303 12.2798 10.0103 12.0698L9.90027 11.8098C9.87027 11.7098 9.86023 11.5998 9.86023 11.4998C9.86023 11.2198 9.96027 10.9698 10.1503 10.7698L10.5303 10.3798C10.6403 10.2698 10.6803 10.2098 10.7003 10.1698C10.6703 10.0998 10.6303 10.0398 10.5803 9.9698L9.41022 8.31981L9.29022 8.23979Z" fill="#128C7E"/>
</svg>
